<svg xmlns="http://www.w3.org/2000/svg" data-name="Full Screen" width="25px" fill="#1d3661" viewBox="0 0 48.42 60.2625" x="0px" y="0px"><title>Full Screen</title><path d="M456.21,648.61l-0.12,12.91c0,0.78-.46,1-1,0.4l-3.93-4-7.11,7a0.59,0.59,0,0,1-.83,0l-4.1-4.18a0.59,0.59,0,0,1,0-.83l7.11-7-3.93-4c-0.54-.56-0.35-1,0.42-1L455.63,648A0.59,0.59,0,0,1,456.21,648.61Zm0,46.78-0.12-12.91c0-.78-0.46-1-1-0.4l-3.93,4-7.11-7a0.59,0.59,0,0,0-.83,0l-4.1,4.18a0.59,0.59,0,0,0,0,.83l7.11,7-3.93,4c-0.54.56-.35,1,0.42,1l12.91-.12A0.59,0.59,0,0,0,456.21,695.39Zm-48.42-46.78,0.12,12.91c0,0.78.46,1,1,.4l3.93-4,7.11,7a0.59,0.59,0,0,0,.83,0l4.1-4.18a0.59,0.59,0,0,0,0-.83l-7.11-7,3.93-4c0.54-.56.35-1-0.42-1l-12.91.12A0.59,0.59,0,0,0,407.79,648.61ZM408.37,696l12.91,0.12c0.78,0,1-.44.42-1l-3.93-4,7.11-7a0.59,0.59,0,0,0,0-.83l-4.1-4.18a0.59,0.59,0,0,0-.83,0l-7.11,7-3.93-4c-0.54-.56-1-0.37-1,0.4l-0.12,12.91A0.59,0.59,0,0,0,408.37,696Z" transform="translate(-407.79 -647.89)"/></svg>